<?xml version="1.0" encoding="UTF-8"?>
<svg xmlns="http://www.w3.org/2000/svg" viewBox="0 0 97 112" width="97" height="112">
  <defs>
    <clipPath id="hexClip"><path d="M 97.50,28.00 L 97.50,84.00 L 49.00,112.00 L 0.50,84.00 L 0.50,28.00 L 49.00,0.00 Z"/></clipPath>
    <radialGradient id="coastGrad" cx="50%" cy="50%" r="70%">
    <stop offset="0%" stop-color="#3c7da1"/>
    <stop offset="100%" stop-color="#2e6f93"/>
  </radialGradient>
  </defs>
  
    <path d="M 97.50,28.00 L 97.50,84.00 L 49.00,112.00 L 0.50,84.00 L 0.50,28.00 L 49.00,0.00 Z" fill="url(#coastGrad)" stroke="rgba(0,0,0,0.18)" stroke-width="1.5" stroke-linejoin="round"/>
    <path d="M 91.68,31.36 L 91.68,80.64 L 49.00,105.28 L 6.32,80.64 L 6.32,31.36 L 49.00,6.72 Z" fill="#38799d" />
  
  <g clip-path="url(#hexClip)">
    <ellipse cx="49" cy="80" rx="42" ry="16" fill="#c9b896"/><path d="M 0,48 Q 4,44 8,48 Q 12,52 16,48 Q 20,44 24,48 Q 28,52 32,48 Q 36,44 40,48 Q 44,52 48,48 Q 52,44 56,48 Q 60,52 64,48 Q 68,44 72,48 Q 76,52 80,48 Q 84,44 88,48 Q 92,52 96,48 Q 100,44 104,48" fill="none" stroke="rgba(255,255,255,0.2)" stroke-width="2" stroke-linecap="round"/>
  </g>
</svg>
