<?xml version="1.0" encoding="UTF-8"?>
<svg xmlns="http://www.w3.org/2000/svg" viewBox="0 0 97 112" width="97" height="112">
  <defs>
    <clipPath id="hexClip"><path d="M 97.50,28.00 L 97.50,84.00 L 49.00,112.00 L 0.50,84.00 L 0.50,28.00 L 49.00,0.00 Z"/></clipPath>
    
  </defs>
  
    <path d="M 97.50,28.00 L 97.50,84.00 L 49.00,112.00 L 0.50,84.00 L 0.50,28.00 L 49.00,0.00 Z" fill="#3f6b3a" stroke="rgba(0,0,0,0.18)" stroke-width="1.5" stroke-linejoin="round"/>
    <path d="M 91.68,31.36 L 91.68,80.64 L 49.00,105.28 L 6.32,80.64 L 6.32,31.36 L 49.00,6.72 Z" fill="#457140" />
  
  <g clip-path="url(#hexClip)">
    <polygon points="33,40 44,68 22,68" fill="#4f7b4a"/><rect x="30.5" y="54" width="5" height="10" fill="#275322"/><polygon points="63,47.4 72.9,72.6 53.1,72.6" fill="#4b7746"/><rect x="60.75" y="60" width="4.5" height="9" fill="#234f1e"/><polygon points="51,27.5 59.25,48.5 42.75,48.5" fill="#4d7948"/><rect x="49.125" y="38" width="3.75" height="7.5" fill="#255120"/>
  </g>
</svg>
