<?xml version="1.0" encoding="UTF-8"?>
<svg xmlns="http://www.w3.org/2000/svg" viewBox="0 0 97 112" width="97" height="112">
  <defs>
    <clipPath id="hexClip"><path d="M 97.50,28.00 L 97.50,84.00 L 49.00,112.00 L 0.50,84.00 L 0.50,28.00 L 49.00,0.00 Z"/></clipPath>
    
  </defs>
  
    <path d="M 97.50,28.00 L 97.50,84.00 L 49.00,112.00 L 0.50,84.00 L 0.50,28.00 L 49.00,0.00 Z" fill="#356b3f" stroke="rgba(0,0,0,0.18)" stroke-width="1.5" stroke-linejoin="round"/>
    <path d="M 91.68,31.36 L 91.68,80.64 L 49.00,105.28 L 6.32,80.64 L 6.32,31.36 L 49.00,6.72 Z" fill="#3b7145" />
  
  <g clip-path="url(#hexClip)">
    <polygon points="31,41.3 42.55,70.7 19.45,70.7" fill="#43794d"/><rect x="28.375" y="56" width="5.25" height="10.5" fill="#1b5125"/><polygon points="59,48.7 69.45,75.3 48.55,75.3" fill="#3f7549"/><rect x="56.625" y="62" width="4.75" height="9.5" fill="#174d21"/><polygon points="45,24.1 54.35,47.9 35.65,47.9" fill="#457b4f"/><rect x="42.875" y="36" width="4.25" height="8.5" fill="#1d5327"/><polygon points="71,31.5 79.25,52.5 62.75,52.5" fill="#41774b"/><rect x="69.125" y="42" width="3.75" height="7.5" fill="#194f23"/>
  </g>
</svg>
