<?xml version="1.0" encoding="UTF-8"?>
<svg xmlns="http://www.w3.org/2000/svg" viewBox="0 0 97 112" width="97" height="112">
  <defs>
    <clipPath id="hexClip"><path d="M 97.50,28.00 L 97.50,84.00 L 49.00,112.00 L 0.50,84.00 L 0.50,28.00 L 49.00,0.00 Z"/></clipPath>
    <radialGradient id="lakeGrad" cx="50%" cy="50%" r="70%">
    <stop offset="0%" stop-color="#3b7998"/>
    <stop offset="100%" stop-color="#2f6d8c"/>
  </radialGradient>
  </defs>
  
    <path d="M 97.50,28.00 L 97.50,84.00 L 49.00,112.00 L 0.50,84.00 L 0.50,28.00 L 49.00,0.00 Z" fill="url(#lakeGrad)" stroke="rgba(0,0,0,0.18)" stroke-width="1.5" stroke-linejoin="round"/>
    <path d="M 91.68,31.36 L 91.68,80.64 L 49.00,105.28 L 6.32,80.64 L 6.32,31.36 L 49.00,6.72 Z" fill="#377594" />
  
  <g clip-path="url(#hexClip)">
    <circle cx="31" cy="42" r="4" fill="rgba(255,255,255,0.14)"/><path d="M 0,60 Q 4,57 8,60 Q 12,63 16,60 Q 20,57 24,60 Q 28,63 32,60 Q 36,57 40,60 Q 44,63 48,60 Q 52,57 56,60 Q 60,63 64,60 Q 68,57 72,60 Q 76,63 80,60 Q 84,57 88,60 Q 92,63 96,60 Q 100,57 104,60" fill="none" stroke="rgba(255,255,255,0.14)" stroke-width="2" stroke-linecap="round"/>
  </g>
</svg>
