<?xml version="1.0" encoding="UTF-8"?>
<svg xmlns="http://www.w3.org/2000/svg" viewBox="0 0 97 112" width="97" height="112">
  <defs>
    <clipPath id="hexClip"><path d="M 97.50,28.00 L 97.50,84.00 L 49.00,112.00 L 0.50,84.00 L 0.50,28.00 L 49.00,0.00 Z"/></clipPath>
    
  </defs>
  
    <path d="M 97.50,28.00 L 97.50,84.00 L 49.00,112.00 L 0.50,84.00 L 0.50,28.00 L 49.00,0.00 Z" fill="#6d6f76" stroke="rgba(0,0,0,0.18)" stroke-width="1.5" stroke-linejoin="round"/>
    <path d="M 91.68,31.36 L 91.68,80.64 L 49.00,105.28 L 6.32,80.64 L 6.32,31.36 L 49.00,6.72 Z" fill="#73757c" />
  
  <g clip-path="url(#hexClip)">
    <polygon points="33,47.3 49.5,84.7 16.5,84.7" fill="#6d6f76"/><polygon points="33,50.05 40.7,66.55 25.299999999999997,66.55" fill="#c8d0d8"/><polygon points="65,55.85 79.25,88.15 50.75,88.15" fill="#6d6f76"/><polygon points="65,58.224999999999994 71.65,72.475 58.35,72.475" fill="#b8c0c8"/><polygon points="51,29.25 62.25,54.75 39.75,54.75" fill="#6d6f76"/><polygon points="51,31.125 56.25,42.375 45.75,42.375" fill="#d0d8e0"/>
  </g>
</svg>
