<?xml version="1.0" encoding="UTF-8"?>
<svg xmlns="http://www.w3.org/2000/svg" viewBox="0 0 97 112" width="97" height="112">
  <defs>
    <clipPath id="hexClip"><path d="M 97.50,28.00 L 97.50,84.00 L 49.00,112.00 L 0.50,84.00 L 0.50,28.00 L 49.00,0.00 Z"/></clipPath>
    <radialGradient id="oceanGrad" cx="50%" cy="50%" r="70%">
    <stop offset="0%" stop-color="#285472"/>
    <stop offset="100%" stop-color="#1c4866"/>
  </radialGradient>
  </defs>
  
    <path d="M 97.50,28.00 L 97.50,84.00 L 49.00,112.00 L 0.50,84.00 L 0.50,28.00 L 49.00,0.00 Z" fill="url(#oceanGrad)" stroke="rgba(0,0,0,0.18)" stroke-width="1.5" stroke-linejoin="round"/>
    <path d="M 91.68,31.36 L 91.68,80.64 L 49.00,105.28 L 6.32,80.64 L 6.32,31.36 L 49.00,6.72 Z" fill="#24506e" />
  
  <g clip-path="url(#hexClip)">
    <path d="M 0,68 Q 4,63 8,68 Q 12,73 16,68 Q 20,63 24,68 Q 28,73 32,68 Q 36,63 40,68 Q 44,73 48,68 Q 52,63 56,68 Q 60,73 64,68 Q 68,63 72,68 Q 76,73 80,68 Q 84,63 88,68 Q 92,73 96,68 Q 100,63 104,68" fill="none" stroke="rgba(255,255,255,0.18)" stroke-width="2" stroke-linecap="round"/><path d="M 0,50 Q 4,46 8,50 Q 12,54 16,50 Q 20,46 24,50 Q 28,54 32,50 Q 36,46 40,50 Q 44,54 48,50 Q 52,46 56,50 Q 60,54 64,50 Q 68,46 72,50 Q 76,54 80,50 Q 84,46 88,50 Q 92,54 96,50 Q 100,46 104,50" fill="none" stroke="rgba(255,255,255,0.12)" stroke-width="2" stroke-linecap="round"/><circle cx="77" cy="34" r="3.5" fill="rgba(255,255,255,0.14)"/><circle cx="27" cy="80" r="2.5" fill="rgba(255,255,255,0.12)"/>
  </g>
</svg>
