<?xml version="1.0" encoding="UTF-8"?>
<svg xmlns="http://www.w3.org/2000/svg" viewBox="0 0 97 112" width="97" height="112">
  <defs>
    
  <clipPath id="hexClip"><path d="M 97.50,28.00 L 97.50,84.00 L 49.00,112.00 L 0.50,84.00 L 0.50,28.00 L 49.00,0.00 Z"/></clipPath>

  <!-- Organic ground texture: low-frequency noise tinted green. -->
  <filter id="groundTexture" x="-20%" y="-20%" width="140%" height="140%">
    <feTurbulence type="fractalNoise" baseFrequency="0.09" numOctaves="5" seed="42" result="noise"/>
    <feColorMatrix type="matrix" in="noise" result="colored"
      values="0.6 0 0 0 0.15
              0 0.7 0 0 0.35
              0 0 0.5 0 0.10
              0 0 0 1 0"/>
    <feComponentTransfer in="colored" result="contrasted">
      <feFuncR type="linear" slope="1.4" intercept="-0.15"/>
      <feFuncG type="linear" slope="1.4" intercept="-0.15"/>
      <feFuncB type="linear" slope="1.4" intercept="-0.15"/>
    </feComponentTransfer>
    <feComposite operator="in" in="contrasted" in2="SourceGraphic" result="textured"/>
    <feBlend mode="multiply" in="textured" in2="SourceGraphic"/>
  </filter>

  <!-- Soft blur for shadows and ambient occlusion. -->
  <filter id="blur">
    <feGaussianBlur stdDeviation="1.2"/>
  </filter>

  <!-- Subtle top-left lighting gradient. -->
  <radialGradient id="sunLight" cx="30%" cy="25%" r="80%">
    <stop offset="0%" stop-color="#ffffff" stop-opacity="0.25"/>
    <stop offset="60%" stop-color="#ffffff" stop-opacity="0.05"/>
    <stop offset="100%" stop-color="#000000" stop-opacity="0.25"/>
  </radialGradient>

  <!-- Inset shadow around the hex edge for depth. -->
  <filter id="insetShadow" x="-20%" y="-20%" width="140%" height="140%">
    <feOffset dx="0" dy="1"/>
    <feGaussianBlur stdDeviation="2" result="offset-blur"/>
    <feComposite operator="out" in="SourceGraphic" in2="offset-blur" result="inverse"/>
    <feFlood flood-color="black" flood-opacity="0.35" result="color"/>
    <feComposite operator="in" in="color" in2="inverse" result="shadow"/>
    <feComposite operator="over" in="shadow" in2="SourceGraphic"/>
  </filter>

  </defs>
  <g clip-path="url(#hexClip)">
    <!-- Base ground. -->
    <path d="M 97.50,28.00 L 97.50,84.00 L 49.00,112.00 L 0.50,84.00 L 0.50,28.00 L 49.00,0.00 Z" fill="#5b8a43" filter="url(#groundTexture)"/>
    <!-- Lighting / ambient occlusion overlay. -->
    <path d="M 97.50,28.00 L 97.50,84.00 L 49.00,112.00 L 0.50,84.00 L 0.50,28.00 L 49.00,0.00 Z" fill="url(#sunLight)"/>
    <!-- Vegetation and rocks. -->
    <path d="M 16.11843525791272,27.47379114192804 Q 15.275182251253815,21.525233735826845 17.815391611846618,15.576676329725652" stroke="#6b9a53" stroke-width="1.4684782772465415" fill="none" stroke-linecap="round"/><path d="M 12.285808848493405,26.17668657453405 Q 11.793609788880374,23.088189746078612 15.832761729170011,19.99969291762317" stroke="#7aa85a" stroke-width="1.2416475309818111" fill="none" stroke-linecap="round"/><path d="M 12.536619605151904,24.33384840483017 Q 17.19230536569203,19.93302502884928 17.080609519340726,15.532201652868387" stroke="#3f6b30" stroke-width="1.1099134612010804" fill="none" stroke-linecap="round"/><path d="M 16.16141116722716,24.323695280490558 Q 16.75806238917191,19.805106021251085 16.95096205228293,15.28651676201161" stroke="#3f6b30" stroke-width="1.4379529433116827" fill="none" stroke-linecap="round"/><path d="M 16.258517755527524,26.52445130284577 Q 15.413786771821037,22.1945659120095 18.66889923623961,17.86468052117323" stroke="#4a7a36" stroke-width="1.3335665471469478" fill="none" stroke-linecap="round"/><path d="M 13.050840943705872,27.428066889313417 Q 9.507443663153845,22.414491844634775 10.307831156561292,17.400916799956136" stroke="#4a7a36" stroke-width="1.417090562743804" fill="none" stroke-linecap="round"/><path d="M 39.7316560233184,89.1846682644273 Q 39.876033580407245,86.62052907784052 39.413628911863746,84.05638989125373" stroke="#6b9a53" stroke-width="0.7905733074852928" fill="none" stroke-linecap="round"/><path d="M 37.63149674440443,89.19348303771224 Q 37.91467207886086,86.14958862011282 35.14616293985934,83.1056942025134" stroke="#3f6b30" stroke-width="0.6368761470295154" fill="none" stroke-linecap="round"/><path d="M 36.19614563306694,89.33375470303957 Q 35.847599144428656,85.54612024640659 33.39867076207098,81.7584857897736" stroke="#5b8a43" stroke-width="1.0213328925004523" fill="none" stroke-linecap="round"/><path d="M 40.73077807184647,90.1847077212846 Q 42.58660120968641,86.29012033687039 40.061184671592265,82.39553295245618" stroke="#4a7a36" stroke-width="0.822894555373316" fill="none" stroke-linecap="round"/><path d="M 41.117864003392576,90.20079411524854 Q 42.05697369283511,86.56287987101129 40.62257998981309,82.92496562677404" stroke="#4a7a36" stroke-width="0.9423299157112184" fill="none" stroke-linecap="round"/><path d="M 39.75826593440491,89.26156884133023 Q 38.1242964281262,86.249302312135 40.88070099196447,83.23703578293977" stroke="#7aa85a" stroke-width="0.9279392568528996" fill="none" stroke-linecap="round"/><path d="M 86.42067823386022,39.97318423137573 Q 86.68686752516003,35.95272928726516 89.68261143523591,31.932274343154575" stroke="#6b9a53" stroke-width="1.58526047006441" fill="none" stroke-linecap="round"/><path d="M 84.8428468100867,36.75111764487326 Q 88.45752828183593,33.8969332362678 88.52446328505835,31.042748827662344" stroke="#6b9a53" stroke-width="1.5118706610658708" fill="none" stroke-linecap="round"/><path d="M 85.57343850510361,36.59849722760325 Q 81.46721660053089,31.267999211365748 82.53332417799629,25.93750119512825" stroke="#4a7a36" stroke-width="1.4682921364196575" fill="none" stroke-linecap="round"/><path d="M 88.47969260238277,39.28888314998823 Q 87.89005846933146,34.424616172669616 87.6908980731986,29.560349195351" stroke="#5b8a43" stroke-width="0.9114601824251395" fill="none" stroke-linecap="round"/><path d="M 28.87088772224944,73.45539774781771 Q 27.71374055002736,70.44158755300927 30.53924116906776,67.42777735820083" stroke="#3f6b30" stroke-width="0.8997625292044528" fill="none" stroke-linecap="round"/><path d="M 30.74990089312225,73.4386668416429 Q 27.56741816935672,69.82665034779653 27.761511799083742,66.21463385395015" stroke="#5b8a43" stroke-width="1.081177922309429" fill="none" stroke-linecap="round"/><path d="M 33.05013098401945,73.87564186934621 Q 33.870327277028004,71.08722940533958 33.67078393458556,68.29881694133297" stroke="#3f6b30" stroke-width="0.7348211022316216" fill="none" stroke-linecap="round"/><path d="M 30.899549885225333,73.43093525020545 Q 34.100161736085106,70.0649277911006 33.730700614622876,66.69892033199575" stroke="#3f6b30" stroke-width="0.9770002403884022" fill="none" stroke-linecap="round"/><path d="M 30.161903616042338,96.92790210676652 Q 31.304950898038058,94.02607823260118 30.05779115657491,91.12425435843583" stroke="#6b9a53" stroke-width="1.0426460800330168" fill="none" stroke-linecap="round"/><path d="M 32.33920276049354,97.93067419521368 Q 33.93971848650133,94.60849389280405 31.445740810859885,91.28631359039441" stroke="#7aa85a" stroke-width="0.6178211975196518" fill="none" stroke-linecap="round"/><path d="M 29.376354389853848,98.531150845904 Q 32.127145908036674,94.5862677691733 31.79641434783714,90.64138469244261" stroke="#6b9a53" stroke-width="0.6422724012040769" fill="none" stroke-linecap="round"/><path d="M 32.81363346509873,96.9857727674717 Q 34.21444177063692,93.83779049412126 31.785625176547644,90.68980822077084" stroke="#3f6b30" stroke-width="0.622081782915074" fill="none" stroke-linecap="round"/><path d="M 17.001240447616162,61.72160876324754 Q 14.680063029052704,56.97258326867363 14.234637050303993,52.22355777409972" stroke="#6b9a53" stroke-width="0.8958939219842365" fill="none" stroke-linecap="round"/><path d="M 18.02738297827227,62.91261799343117 Q 17.94239567139505,59.58536511798447 19.355883553770994,56.25811224253778" stroke="#7aa85a" stroke-width="0.987636829705258" fill="none" stroke-linecap="round"/><path d="M 11.686515373857842,61.59258508059852 Q 9.023528917948408,58.49848663336214 11.720519053925493,55.404388186125765" stroke="#5b8a43" stroke-width="1.3290779336781753" fill="none" stroke-linecap="round"/><path d="M 13.120881181131494,62.13849169468209 Q 14.25417856684017,57.07610139613939 14.794867382863465,52.01371109759669" stroke="#5b8a43" stroke-width="1.4299726298228437" fill="none" stroke-linecap="round"/><path d="M 15.608212824358178,62.49898103072419 Q 13.807392938027034,56.990583802074646 17.758375032529536,51.4821865734251" stroke="#5b8a43" stroke-width="1.4219742332950684" fill="none" stroke-linecap="round"/><path d="M 15.253247516345033,63.95022123827024 Q 16.430383164122954,58.8532500493036 20.100154956541424,53.75627886033695" stroke="#7aa85a" stroke-width="1.2104642850109275" fill="none" stroke-linecap="round"/><path d="M 13.2845665889464,61.87127257945519 Q 10.203905957856962,56.964622352249584 7.465584283721606,52.05797212504398" stroke="#4a7a36" stroke-width="1.418738995885875" fill="none" stroke-linecap="round"/><path d="M 85.52236984293693,80.8344868760933 Q 83.35998052824215,78.61434362433863 83.0517974159576,76.39420037258397" stroke="#7aa85a" stroke-width="0.7260222577643258" fill="none" stroke-linecap="round"/><path d="M 88.71690250429158,81.60182664575964 Q 89.59389287520686,77.86031674675634 87.91264315572792,74.11880684775302" stroke="#5b8a43" stroke-width="1.0149216865692705" fill="none" stroke-linecap="round"/><path d="M 83.38400553319887,80.85853592750337 Q 82.37655353061585,76.52285532877282 81.01972148725562,72.18717473004227" stroke="#4a7a36" stroke-width="0.6969658979915454" fill="none" stroke-linecap="round"/><path d="M 86.50615899646067,83.70476701819621 Q 88.39194711954949,80.31828316834358 89.21126566052385,76.93179931849097" stroke="#6b9a53" stroke-width="0.8116778723208612" fill="none" stroke-linecap="round"/><path d="M 77.15026721009055,34.38973665047998 Q 75.02787528522087,29.45358771485958 72.86372666345638,24.517438779239175" stroke="#7aa85a" stroke-width="1.3449272517928625" fill="none" stroke-linecap="round"/><path d="M 78.01391867358778,34.23084747211854 Q 78.48604740873891,28.82600930604688 76.00263067238662,23.421171139975222" stroke="#5b8a43" stroke-width="1.3635520998887776" fill="none" stroke-linecap="round"/><path d="M 75.9338970151623,36.19706646071128 Q 71.63539036408879,32.57239565440813 71.45147453098875,28.94772484810499" stroke="#6b9a53" stroke-width="1.0243851491277265" fill="none" stroke-linecap="round"/><path d="M 71.54216708251361,35.197099253670466 Q 73.36457330577032,32.49891797859923 74.5734965111063,29.800736703527996" stroke="#7aa85a" stroke-width="0.9072562257967697" fill="none" stroke-linecap="round"/><path d="M 19.93509434500807,82.88588003774598 Q 23.634095919667736,78.69764785181478 23.108831561282297,74.50941566588358" stroke="#6b9a53" stroke-width="0.8705695466873359" fill="none" stroke-linecap="round"/><path d="M 16.266244473266024,83.52765711845204 Q 18.898479791648967,81.25888661179779 17.24262670806221,78.99011610514356" stroke="#3f6b30" stroke-width="0.8680667794670107" fill="none" stroke-linecap="round"/><path d="M 20.750993771661452,84.07592237805679 Q 22.54849327663874,79.66404154158016 22.58459989943754,75.25216070510355" stroke="#7aa85a" stroke-width="0.8698793552986346" fill="none" stroke-linecap="round"/><path d="M 19.48835344561124,81.56547981469487 Q 16.782322470246978,78.12546167600225 15.124627301508749,74.68544353730961" stroke="#3f6b30" stroke-width="0.7396095606533927" fill="none" stroke-linecap="round"/><path d="M 20.497252071800403,41.70685155432797 Q 21.40526558951012,38.67915607324275 21.990410883274944,35.65146059215753" stroke="#6b9a53" stroke-width="0.6727127675458372" fill="none" stroke-linecap="round"/><path d="M 22.814660904925443,41.179539786031405 Q 24.920852690780034,37.295246046263294 25.09007354450386,33.41095230649518" stroke="#5b8a43" stroke-width="1.0111906538735995" fill="none" stroke-linecap="round"/><path d="M 20.271560879492174,39.724489095602316 Q 22.161791903317237,35.44888786387357 21.340431469426697,31.173286632144833" stroke="#7aa85a" stroke-width="0.8030657732913985" fill="none" stroke-linecap="round"/><path d="M 20.98035041864978,39.57974125997656 Q 22.647212281035713,35.3935205954265 20.28497418710632,31.20729993087645" stroke="#3f6b30" stroke-width="1.2562765564068157" fill="none" stroke-linecap="round"/><path d="M 21.629499245827773,39.16000957020229 Q 24.015351409130687,35.776494839995436 24.962778983767382,32.39298010978858" stroke="#7aa85a" stroke-width="1.2482513282772874" fill="none" stroke-linecap="round"/><path d="M 21.040993986181018,39.98796872558932 Q 20.25636438839186,35.37903872558055 23.62802233297363,30.770108725571784" stroke="#5b8a43" stroke-width="0.8626502633314217" fill="none" stroke-linecap="round"/><path d="M 23.55765444590962,80.98876992056798 Q 22.242427098246818,78.26811132892728 19.905028305658764,75.54745273728658" stroke="#6b9a53" stroke-width="0.7077650772558061" fill="none" stroke-linecap="round"/><path d="M 25.14399562669861,79.92729898664237 Q 24.888337957408666,75.90921081795385 22.23814950853791,71.89112264926533" stroke="#7aa85a" stroke-width="0.9810251167093205" fill="none" stroke-linecap="round"/><path d="M 23.90025570844296,79.05941435682047 Q 20.968597411577584,75.58610058684384 20.197030733642492,72.11278681686721" stroke="#5b8a43" stroke-width="0.9363128985976368" fill="none" stroke-linecap="round"/><path d="M 26.058926415267468,80.4290383971244 Q 29.03953916669685,76.74263224892202 29.076899243915225,73.05622610071964" stroke="#3f6b30" stroke-width="0.90684274196723" fill="none" stroke-linecap="round"/><path d="M 21.1841515493489,78.66653028890114 Q 22.804923057019604,75.28208962237107 21.45323069548889,71.897648955841" stroke="#6b9a53" stroke-width="0.8172233258564086" fill="none" stroke-linecap="round"/><path d="M 13.778362000541131,98.04234847053594 Q 14.199925526196576,95.29035397246413 12.824574337177262,92.53835947439234" stroke="#5b8a43" stroke-width="0.7844599479822633" fill="none" stroke-linecap="round"/><path d="M 13.664178621801167,97.99916349426826 Q 13.09857691750383,93.17903166998485 12.270991396247014,88.35889984570146" stroke="#4a7a36" stroke-width="0.9445619489097726" fill="none" stroke-linecap="round"/><path d="M 10.56474202786285,97.49866318115242 Q 6.366771632207566,94.20973260989709 6.395164039137237,90.92080203864175" stroke="#4a7a36" stroke-width="1.1195906299167466" fill="none" stroke-linecap="round"/><path d="M 9.347065050421184,96.11901712686515 Q 8.158202357462933,93.47268693890209 8.046064377643217,90.82635675093901" stroke="#6b9a53" stroke-width="0.8268304188653661" fill="none" stroke-linecap="round"/><path d="M 14.024899671825946,97.75948291510531 Q 16.692842890194584,94.54750708673751 15.270945304743451,91.33553125836971" stroke="#5b8a43" stroke-width="1.0556603587114992" fill="none" stroke-linecap="round"/><path d="M 10.277383680921444,98.6124644384056 Q 8.902279873731052,94.85894200125138 10.164639117779254,91.10541956409716" stroke="#4a7a36" stroke-width="1.4206381176452405" fill="none" stroke-linecap="round"/><path d="M 8.722455851798943,96.62768548492707 Q 5.487748464008488,93.63709072003992 4.942361307852662,90.64649595515279" stroke="#5b8a43" stroke-width="1.3054853939337114" fill="none" stroke-linecap="round"/><path d="M 45.35044960701272,58.00431514471484 Q 46.3969403514408,53.9689761232429 45.030522230016196,49.93363710177097" stroke="#5b8a43" stroke-width="1.215897097102327" fill="none" stroke-linecap="round"/><path d="M 45.39821828450421,59.61088708303829 Q 45.83360711362419,57.15519968653404 47.769968236555115,54.699512290029794" stroke="#5b8a43" stroke-width="0.803115044671906" fill="none" stroke-linecap="round"/><path d="M 43.838194168049824,58.31771876063376 Q 39.96867584956636,54.66224703882969 38.86944107335397,51.00677531702563" stroke="#3f6b30" stroke-width="0.8091451987694456" fill="none" stroke-linecap="round"/><path d="M 43.77700716514063,56.821767733088315 Q 45.05475176101254,53.489412822053026 45.64717137364463,50.15705791101773" stroke="#5b8a43" stroke-width="0.6531036522089906" fill="none" stroke-linecap="round"/><path d="M 47.99225708622345,59.06238556785635 Q 46.4904211852553,56.21244828558596 48.1366238649131,53.36251100331556" stroke="#4a7a36" stroke-width="0.6167396264140024" fill="none" stroke-linecap="round"/><path d="M 45.915180118654035,57.345793520764296 Q 48.905252412297486,54.92166554784915 47.69558456492019,52.497537574934" stroke="#5b8a43" stroke-width="0.8844482510908316" fill="none" stroke-linecap="round"/><path d="M 26.32235797856204,11.418069727786378 Q 24.777719329502425,7.156671021985759 25.343551109321357,2.8952723161851406" stroke="#4a7a36" stroke-width="0.9660620554875279" fill="none" stroke-linecap="round"/><path d="M 23.50099162620059,10.33362188849097 Q 23.738033216911695,7.1378428378946435 21.1570508999959,3.9420637872983173" stroke="#5b8a43" stroke-width="0.7093215555634118" fill="none" stroke-linecap="round"/><path d="M 25.25195915034303,12.01218303909001 Q 29.54774606993527,8.336213689560797 29.054172394617833,4.660244340031583" stroke="#7aa85a" stroke-width="0.930462981458196" fill="none" stroke-linecap="round"/><path d="M 22.918445907671007,13.383367433795446 Q 24.512039338610386,10.556701293541936 25.119209598409224,7.730035153288426" stroke="#7aa85a" stroke-width="1.1566083525789226" fill="none" stroke-linecap="round"/><path d="M 71.89672792931331,47.74685899274401 Q 68.28500811235786,43.565740733104526 69.21678881951895,39.38462247346504" stroke="#3f6b30" stroke-width="1.052850324472468" fill="none" stroke-linecap="round"/><path d="M 75.23418203690258,48.82069562844694 Q 75.59779410764953,46.58307615686421 78.09551800767552,44.34545668528147" stroke="#6b9a53" stroke-width="1.0343027763796768" fill="none" stroke-linecap="round"/><path d="M 73.87762289207588,46.667793919900525 Q 74.4757899215605,43.32669262475075 72.57128691941,39.985591329600965" stroke="#6b9a53" stroke-width="1.0751792570174876" fill="none" stroke-linecap="round"/><path d="M 73.73416238619825,47.35435468291351 Q 74.77629230166883,43.88208653725571 72.22699247600609,40.40981839159791" stroke="#4a7a36" stroke-width="1.1156770643916618" fill="none" stroke-linecap="round"/><path d="M 70.83120801218338,48.24501317859386 Q 71.00249356320373,44.518323055141764 69.97801094122741,40.791632931689676" stroke="#4a7a36" stroke-width="0.9280716560797959" fill="none" stroke-linecap="round"/><path d="M 76.4579632372018,47.61893309569211 Q 79.47942866838498,43.13529451691886 78.55567562616565,38.651655938145616" stroke="#3f6b30" stroke-width="1.1253399471068293" fill="none" stroke-linecap="round"/><path d="M 72.31140614360422,48.98730255531578 Q 73.08505945414244,45.85296463403315 69.36417588156242,42.71862671275052" stroke="#5b8a43" stroke-width="0.8921503946057657" fill="none" stroke-linecap="round"/><path d="M 56.44144673097452,57.34223291828588 Q 54.20186045411043,55.305236695627116 54.33167360299909,53.26824047296835" stroke="#3f6b30" stroke-width="0.7795183717953639" fill="none" stroke-linecap="round"/><path d="M 51.73512985651263,54.65396561484982 Q 52.27492816942266,50.582846129663736 53.76285972508256,46.51172664447766" stroke="#3f6b30" stroke-width="0.758207504543199" fill="none" stroke-linecap="round"/><path d="M 52.69165382218242,55.406579451968994 Q 52.71915473805016,52.18066166199386 50.712672478352836,48.95474387201872" stroke="#3f6b30" stroke-width="0.7452174674988266" fill="none" stroke-linecap="round"/><path d="M 54.040391477058044,55.3507730711942 Q 52.79624133428725,52.9443950081608 53.924895479977806,50.538016945127396" stroke="#3f6b30" stroke-width="0.821180915921629" fill="none" stroke-linecap="round"/><path d="M 55.446539490935365,57.29802193970174 Q 55.84742901053262,54.46027973148371 59.00658235033188,51.62253752326568" stroke="#7aa85a" stroke-width="0.8841304186060344" fill="none" stroke-linecap="round"/><path d="M 52.11726786997119,55.77333224698019 Q 51.55070317841867,52.03992822154536 49.81791824681691,48.30652419611052" stroke="#3f6b30" stroke-width="0.7000814202480153" fill="none" stroke-linecap="round"/><path d="M 55.050795872479796,55.06505895850373 Q 54.389419820118405,52.44561401723309 56.19678889146672,49.82616907596245" stroke="#3f6b30" stroke-width="0.7342625020181197" fill="none" stroke-linecap="round"/><path d="M 49.453699583884486,81.8923455609253 Q 51.81856178195803,77.16711207168737 53.838079358095996,72.44187858244945" stroke="#5b8a43" stroke-width="0.8721355866180953" fill="none" stroke-linecap="round"/><path d="M 48.02838321607917,81.47057782152459 Q 48.01387841346881,77.98483764113548 46.4773743954369,74.49909746074637" stroke="#3f6b30" stroke-width="0.9613349102643549" fill="none" stroke-linecap="round"/><path d="M 48.632707595495525,83.15662128991971 Q 50.3744127155153,78.9909735914722 46.71468733366121,74.82532589302468" stroke="#6b9a53" stroke-width="1.5198241381234572" fill="none" stroke-linecap="round"/><path d="M 47.52173702045199,82.79832058785534 Q 47.603783471783686,77.55898478960509 44.31397489750069,72.31964899135484" stroke="#6b9a53" stroke-width="1.48261027093453" fill="none" stroke-linecap="round"/><path d="M 51.02476306433922,73.28585379640006 Q 50.24857763207612,67.96547039989824 47.53378956337478,62.64508700339641" stroke="#7aa85a" stroke-width="1.5311615486182875" fill="none" stroke-linecap="round"/><path d="M 44.29657909544963,74.9252147278495 Q 41.65773038134688,70.80373451990658 39.21229308178262,66.68225431196369" stroke="#7aa85a" stroke-width="1.0157047040112401" fill="none" stroke-linecap="round"/><path d="M 44.73083114592518,75.59049298481315 Q 43.28962531034605,72.55226562704165 47.280792631853885,69.51403826927013" stroke="#4a7a36" stroke-width="1.2687008143434586" fill="none" stroke-linecap="round"/><path d="M 51.24932249014287,72.74656479653733 Q 47.856148384596835,69.31653071242656 50.591118262539126,65.88649662831578" stroke="#4a7a36" stroke-width="1.0371022158918832" fill="none" stroke-linecap="round"/><path d="M 50.57948535558818,75.70388007764996 Q 50.200827353046336,72.03776341216172 52.82911588745475,68.37164674667349" stroke="#5b8a43" stroke-width="1.6489820922151919" fill="none" stroke-linecap="round"/><path d="M 21.938253268985772,39.32969850182922 Q 21.987921654380706,34.30193824689116 21.723218191419654,29.274177991953096" stroke="#5b8a43" stroke-width="0.9022557262837119" fill="none" stroke-linecap="round"/><path d="M 22.559035004282766,36.121873666028556 Q 24.566549253401497,32.22621583734089 21.683648341299495,28.330558008653224" stroke="#3f6b30" stroke-width="1.2807383280011122" fill="none" stroke-linecap="round"/><path d="M 21.36084674783332,39.34520147955213 Q 20.08628064708066,34.97683003769448 24.70877052996161,30.60845859583683" stroke="#3f6b30" stroke-width="0.9631784083206676" fill="none" stroke-linecap="round"/><path d="M 20.114750595346102,38.87659718711796 Q 18.941835155418993,35.46721802678239 20.411413106534454,32.05783886644682" stroke="#5b8a43" stroke-width="1.193138264710364" fill="none" stroke-linecap="round"/><path d="M 17.995792919801456,35.76729734600882 Q 17.122732373041156,31.06183811481738 16.20221146654242,26.356378883625943" stroke="#4a7a36" stroke-width="1.4742086796955443" fill="none" stroke-linecap="round"/><path d="M 79.86485271441826,81.23856271582761 Q 82.29892914471345,76.83091477908863 83.02169311974,72.42326684234965" stroke="#7aa85a" stroke-width="1.1658769751098246" fill="none" stroke-linecap="round"/><path d="M 75.36783089926435,78.74123399465651 Q 77.59658966049476,74.09083664320747 78.22369892440484,69.44043929175842" stroke="#7aa85a" stroke-width="1.1046139530758028" fill="none" stroke-linecap="round"/><path d="M 77.77426297567366,80.10409454003594 Q 79.88254389960404,76.25323772170037 82.49483451052164,72.40238090336481" stroke="#6b9a53" stroke-width="1.3943139997641443" fill="none" stroke-linecap="round"/><path d="M 76.28746327182515,79.02218824039653 Q 74.76081939791294,73.92031343862702 75.09132588849558,68.81843863685752" stroke="#6b9a53" stroke-width="1.0296335134990295" fill="none" stroke-linecap="round"/><path d="M 82.29556497891359,78.09971456685666 Q 81.53852406773943,72.42503052704618 83.598289889975,66.75034648723567" stroke="#6b9a53" stroke-width="1.5903346969654326" fill="none" stroke-linecap="round"/><path d="M 78.96640615103044,80.37932943368149 Q 80.2753921316222,77.3166130746841 76.68038771040742,74.2538967156867" stroke="#4a7a36" stroke-width="0.816497884973489" fill="none" stroke-linecap="round"/><path d="M 78.5707923216833,81.06083156443103 Q 75.66226487612109,76.7969126748104 74.71141970935525,72.53299378518976" stroke="#3f6b30" stroke-width="0.8634455878895746" fill="none" stroke-linecap="round"/><path d="M 76.00731923298007,80.40485401462718 Q 72.82375747802382,76.83011974353978 74.85627507381014,73.25538547245239" stroke="#7aa85a" stroke-width="0.8529060880398222" fill="none" stroke-linecap="round"/><path d="M 79.76813664994961,82.53536434672463 Q 76.44545479775249,79.9854021416444 76.96719462690851,77.43543993656418" stroke="#4a7a36" stroke-width="1.1141765073428933" fill="none" stroke-linecap="round"/><path d="M 76.50612126335344,81.30016491768714 Q 78.75504287239825,77.98962266459881 77.60154085707946,74.67908041151047" stroke="#4a7a36" stroke-width="0.822614720230583" fill="none" stroke-linecap="round"/><path d="M 73.80219338393071,81.1439963152374 Q 77.30677970046284,77.17031590589625 77.42644259648026,73.19663549655507" stroke="#5b8a43" stroke-width="0.8545741337853656" fill="none" stroke-linecap="round"/><path d="M 77.27384647046271,81.22405514904274 Q 80.32973853309424,77.19928840284672 79.91084998501627,73.17452165665071" stroke="#6b9a53" stroke-width="0.9711734917398273" fill="none" stroke-linecap="round"/><path d="M 79.62913549474642,79.82472362537008 Q 81.82230024704938,75.40878452656892 82.68536968171081,70.99284542776776" stroke="#4a7a36" stroke-width="1.2042526874569373" fill="none" stroke-linecap="round"/><path d="M 28.15252888703253,75.68318182878481 Q 29.851863282097153,70.20583849767833 28.358658587034945,64.72849516657185" stroke="#5b8a43" stroke-width="1.1121492528586951" fill="none" stroke-linecap="round"/><path d="M 26.06766629419498,77.58381915819598 Q 29.95829320278925,73.85062226812633 30.568255610517745,70.1174253780567" stroke="#5b8a43" stroke-width="1.2269320885844397" fill="none" stroke-linecap="round"/><path d="M 31.0504639412153,75.46282763639161 Q 28.074619759123202,72.75211947888593 29.782426727669705,70.04141132138027" stroke="#3f6b30" stroke-width="1.0477272085245035" fill="none" stroke-linecap="round"/><path d="M 30.234647955577252,74.01073310190675 Q 29.521943477571664,68.65204167765006 28.817872251060244,63.29335025339336" stroke="#7aa85a" stroke-width="1.0307042234541746" fill="none" stroke-linecap="round"/><path d="M 27.012792848686974,74.6826843535404 Q 24.344015672311286,69.74437442022698 25.345505249112225,64.80606448691356" stroke="#5b8a43" stroke-width="0.8370406994486179" fill="none" stroke-linecap="round"/><path d="M 26.978977321040794,75.99188460372822 Q 27.632959165992062,72.9693600815787 24.64476998797116,69.94683555942918" stroke="#5b8a43" stroke-width="1.4607186991353167" fill="none" stroke-linecap="round"/><path d="M 28.826401107264243,73.98059903532858 Q 28.73225408411292,70.05892758222416 32.264191768537856,66.13725612911975" stroke="#6b9a53" stroke-width="1.3563853202804577" fill="none" stroke-linecap="round"/><path d="M 70.43966219422846,21.698564936629385 Q 71.33047073383744,17.21366693194278 71.014854800608,12.728768927256173" stroke="#7aa85a" stroke-width="1.3910813018155743" fill="none" stroke-linecap="round"/><path d="M 71.67133187644369,22.42399400658482 Q 71.00840599457177,16.865651959117812 75.29967249872881,11.307309911650808" stroke="#6b9a53" stroke-width="1.1658893719213368" fill="none" stroke-linecap="round"/><path d="M 68.29717559968685,22.757648373943574 Q 69.26398269318634,18.672517963012517 71.93750381003579,14.587387552081461" stroke="#6b9a53" stroke-width="0.9727898688501265" fill="none" stroke-linecap="round"/><path d="M 72.02806341245216,20.36114164797104 Q 70.62641710429047,15.0656175730645 69.98626561292191,9.770093498157964" stroke="#4a7a36" stroke-width="1.2026994951291545" fill="none" stroke-linecap="round"/><path d="M 83.27879767248616,11.899267706015404 Q 83.07468519172512,8.523536992562047 80.04529536183838,5.147806279108689" stroke="#6b9a53" stroke-width="1.0928576891449258" fill="none" stroke-linecap="round"/><path d="M 81.6445459196829,9.768395803282367 Q 83.67509646109592,5.608731883542461 82.52876166856407,1.4490679638025554" stroke="#7aa85a" stroke-width="1.1304499857484474" fill="none" stroke-linecap="round"/><path d="M 86.88319549385496,10.615883000223498 Q 86.99296011575673,7.291666874074993 91.42977416320535,3.967450747926488" stroke="#6b9a53" stroke-width="0.9707798139699423" fill="none" stroke-linecap="round"/><path d="M 85.71363290651608,9.916004327818943 Q 82.54649779048786,5.922634451843047 82.82525258854773,1.9292645758671512" stroke="#4a7a36" stroke-width="1.1311690866260307" fill="none" stroke-linecap="round"/><path d="M 86.92704915271305,12.146915759263642 Q 89.08217737882212,9.387579267271779 89.74379803855523,6.628242775279917" stroke="#5b8a43" stroke-width="0.9786182736730572" fill="none" stroke-linecap="round"/><path d="M 86.44715673640897,12.468068601196492 Q 86.99137581893898,8.413615815634945 87.81569278200263,4.359163030073399" stroke="#4a7a36" stroke-width="0.9993108744091005" fill="none" stroke-linecap="round"/><path d="M 82.4747555647078,11.659445705417417 Q 84.7461899226391,8.986307542662194 84.58937892768832,6.313169379906972" stroke="#4a7a36" stroke-width="1.139676175762027" fill="none" stroke-linecap="round"/><path d="M 71.39491026175853,102.07855689137165 Q 73.25805335808526,95.73580433808048 68.96973270684754,89.39305178478932" stroke="#3f6b30" stroke-width="1.0227130715270591" fill="none" stroke-linecap="round"/><path d="M 70.53662629209802,101.34614633216901 Q 70.76009321564044,97.53358963681929 69.9001999703775,93.72103294146957" stroke="#5b8a43" stroke-width="1.6263264043709134" fill="none" stroke-linecap="round"/><path d="M 65.12512527779037,99.43966785975067 Q 67.14620601623056,95.79912157689371 64.97932649481773,92.15857529403675" stroke="#4a7a36" stroke-width="1.639675470228923" fill="none" stroke-linecap="round"/><path d="M 65.10544413332237,98.7664459617462 Q 67.16426844315635,94.89978550553758 63.30565380181055,91.03312504932894" stroke="#3f6b30" stroke-width="1.6907191879690504" fill="none" stroke-linecap="round"/><path d="M 85.43231422848925,85.07939771161669 Q 82.7949669478433,82.90513721596791 84.10458386329512,80.73087672031913" stroke="#5b8a43" stroke-width="1.0141515319289862" fill="none" stroke-linecap="round"/><path d="M 83.40516091944026,86.5373660020773 Q 83.12538287832429,83.87501529782524 81.10948258788963,81.21266459357317" stroke="#4a7a36" stroke-width="0.7808947880959065" fill="none" stroke-linecap="round"/><path d="M 85.7452106761535,85.72516785004412 Q 88.39632347225758,83.61766533184469 87.33558910229702,81.51016281364527" stroke="#4a7a36" stroke-width="0.9346145701320511" fill="none" stroke-linecap="round"/><path d="M 87.72753100501582,85.41251745944366 Q 87.7362046616973,82.15669492435435 90.82643922391695,78.90087238926505" stroke="#4a7a36" stroke-width="0.6253510972389047" fill="none" stroke-linecap="round"/><ellipse cx="20.314579765545204" cy="60.098864044994116" rx="2.8753177543170754" ry="1.4376588771585377" fill="rgba(0,0,0,0.22)" filter="url(#blur)"/><polygon points="22.5646847572221,58.098864044994116 20.91442349052536,60.10500462257779 18.705774925232046,60.76621233146689 16.719375074600997,59.34864875476308 16.8871753497699,56.929887688775416 18.567251100993346,54.824603229657924 21.045255043332563,55.92866588927538" fill="#5c5e64" stroke="rgba(0,0,0,0.2)" stroke-width="0.5"/><ellipse cx="60.00862811715342" cy="31.745111195370555" rx="4.225590579770506" ry="2.112795289885253" fill="rgba(0,0,0,0.22)" filter="url(#blur)"/><polygon points="63.64264262043373,29.745111195370555 61.87608069145301,33.340782993671056 57.84432087894215,34.846274509337 54.642210237662816,31.847867221240623 54.657478269109795,27.649707865924512 58.062064218130224,25.597943783236023 61.88176448071834,26.142312150763697" fill="#5c5e64" stroke="rgba(0,0,0,0.2)" stroke-width="0.5"/><ellipse cx="53.4652360023465" cy="48.84689208492637" rx="4.297705519106239" ry="2.1488527595531197" fill="rgba(0,0,0,0.22)" filter="url(#blur)"/><polygon points="56.775075749356745,46.84689208492637 55.62524753279656,50.80942121066755 51.288485603727025,52.00257244671401 48.18107486666737,48.91003535075107 48.311072930110264,44.84635258694989 51.308687308083975,41.77972117301864 55.37284319017361,43.200867993888174" fill="#6d6f76" stroke="rgba(0,0,0,0.2)" stroke-width="0.5"/><ellipse cx="36.95091306371614" cy="70.13574667274952" rx="2.4187941431067888" ry="1.2093970715533944" fill="rgba(0,0,0,0.22)" filter="url(#blur)"/><polygon points="38.65128482117717,68.13574667274952 37.53956606221233,70.12785452317267 35.35764007528518,70.73504546986145 33.93642573826366,69.10587263859689 33.29060125647876,66.85460802827001 35.47542204988436,66.05248442351211 37.71744469242714,65.92058607511925" fill="#7a7c84" stroke="rgba(0,0,0,0.2)" stroke-width="0.5"/><circle cx="86.9385245917365" cy="83.49511824827641" r="1.2" fill="#e8d06e"/><circle cx="85.5565585804864" cy="85.39723128086672" r="1.2" fill="#e8d06e"/><circle cx="83.3204906029866" cy="84.67068875286135" r="1.2" fill="#e8d06e"/><circle cx="83.3204906029866" cy="82.31954774369147" r="1.2" fill="#e8d06e"/><circle cx="85.5565585804864" cy="81.5930052156861" r="1.2" fill="#e8d06e"/><circle cx="84.9385245917365" cy="83.49511824827641" r="0.8" fill="#5a3a1a"/><circle cx="76.45553045114502" cy="98.04017685260624" r="1.2" fill="#e8d06e"/><circle cx="75.07356443989492" cy="99.94228988519654" r="1.2" fill="#e8d06e"/><circle cx="72.83749646239512" cy="99.21574735719118" r="1.2" fill="#e8d06e"/><circle cx="72.83749646239512" cy="96.8646063480213" r="1.2" fill="#e8d06e"/><circle cx="75.07356443989492" cy="96.13806382001593" r="1.2" fill="#e8d06e"/><circle cx="74.45553045114502" cy="98.04017685260624" r="0.8" fill="#5a3a1a"/><circle cx="85.68397142295726" cy="54.93786751665175" r="1.2" fill="#e8d06e"/><circle cx="84.30200541170716" cy="56.83998054924206" r="1.2" fill="#e8d06e"/><circle cx="82.06593743420736" cy="56.113438021236696" r="1.2" fill="#e8d06e"/><circle cx="82.06593743420736" cy="53.7622970120668" r="1.2" fill="#e8d06e"/><circle cx="84.30200541170716" cy="53.03575448406144" r="1.2" fill="#e8d06e"/><circle cx="83.68397142295726" cy="54.93786751665175" r="0.8" fill="#5a3a1a"/><circle cx="52.375886836554855" cy="22.845495886169374" r="1.2" fill="#d6a8c0"/><circle cx="50.99392082530475" cy="24.74760891875968" r="1.2" fill="#d6a8c0"/><circle cx="48.75785284780496" cy="24.02106639075432" r="1.2" fill="#d6a8c0"/><circle cx="48.75785284780496" cy="21.669925381584427" r="1.2" fill="#d6a8c0"/><circle cx="50.99392082530475" cy="20.943382853579067" r="1.2" fill="#d6a8c0"/><circle cx="50.375886836554855" cy="22.845495886169374" r="0.8" fill="#5a3a1a"/><circle cx="55.27605132199824" cy="42.87184110842645" r="1.2" fill="#f0f0f0"/><circle cx="53.89408531074813" cy="44.77395414101676" r="1.2" fill="#f0f0f0"/><circle cx="51.658017333248345" cy="44.0474116130114" r="1.2" fill="#f0f0f0"/><circle cx="51.658017333248345" cy="41.696270603841505" r="1.2" fill="#f0f0f0"/><circle cx="53.89408531074813" cy="40.969728075836144" r="1.2" fill="#f0f0f0"/><circle cx="53.27605132199824" cy="42.87184110842645" r="0.8" fill="#5a3a1a"/><circle cx="68.48648094478995" cy="25.892708565108478" r="1.2" fill="#e8d06e"/><circle cx="67.10451493353985" cy="27.794821597698785" r="1.2" fill="#e8d06e"/><circle cx="64.86844695604005" cy="27.068279069693425" r="1.2" fill="#e8d06e"/><circle cx="64.86844695604005" cy="24.71713806052353" r="1.2" fill="#e8d06e"/><circle cx="67.10451493353985" cy="23.99059553251817" r="1.2" fill="#e8d06e"/><circle cx="66.48648094478995" cy="25.892708565108478" r="0.8" fill="#5a3a1a"/><circle cx="27.27493437565863" cy="93.47790786717087" r="1.2" fill="#f0f0f0"/><circle cx="25.892968364408524" cy="95.38002089976118" r="1.2" fill="#f0f0f0"/><circle cx="23.656900386908738" cy="94.65347837175581" r="1.2" fill="#f0f0f0"/><circle cx="23.656900386908738" cy="92.30233736258593" r="1.2" fill="#f0f0f0"/><circle cx="25.892968364408524" cy="91.57579483458056" r="1.2" fill="#f0f0f0"/><circle cx="25.27493437565863" cy="93.47790786717087" r="0.8" fill="#5a3a1a"/><circle cx="62.87919477978721" cy="42.891889528371394" r="1.2" fill="#e8d06e"/><circle cx="61.497228768537106" cy="44.7940025609617" r="1.2" fill="#e8d06e"/><circle cx="59.26116079103732" cy="44.06746003295634" r="1.2" fill="#e8d06e"/><circle cx="59.26116079103732" cy="41.71631902378645" r="1.2" fill="#e8d06e"/><circle cx="61.497228768537106" cy="40.989776495781086" r="1.2" fill="#e8d06e"/><circle cx="60.87919477978721" cy="42.891889528371394" r="0.8" fill="#5a3a1a"/><circle cx="35.69850147259422" cy="66.88906880561262" r="1.2" fill="#d6a8c0"/><circle cx="34.31653546134411" cy="68.79118183820293" r="1.2" fill="#d6a8c0"/><circle cx="32.08046748384432" cy="68.06463931019756" r="1.2" fill="#d6a8c0"/><circle cx="32.08046748384432" cy="65.71349830102768" r="1.2" fill="#d6a8c0"/><circle cx="34.31653546134411" cy="64.98695577302232" r="1.2" fill="#d6a8c0"/><circle cx="33.69850147259422" cy="66.88906880561262" r="0.8" fill="#5a3a1a"/>
    <!-- Edge definition (subtle stroke + inset shadow). -->
    <path d="M 97.50,28.00 L 97.50,84.00 L 49.00,112.00 L 0.50,84.00 L 0.50,28.00 L 49.00,0.00 Z" fill="none" stroke="rgba(0,0,0,0.22)" stroke-width="1.5" stroke-linejoin="round" filter="url(#insetShadow)"/>
  </g>
</svg>
